<svg xmlns="http://www.w3.org/2000/svg" version="1.1" xmlns:xlink="http://www.w3.org/1999/xlink" xmlns:svgjs="http://svgjs.dev/svgjs" width="2000" height="2248" viewBox="0 0 2000 2248"><g transform="matrix(1,0,0,1,-0.3613874562252022,0)"><svg viewBox="0 0 249 280" data-background-color="#ffffff" preserveAspectRatio="xMidYMid meet" height="2248" width="2000" xmlns="http://www.w3.org/2000/svg" xmlns:xlink="http://www.w3.org/1999/xlink"><g id="tight-bounds" transform="matrix(1,0,0,1,0.04499273830003858,0)"><svg viewBox="0 0 248.91001452339992 280" height="280" width="248.91001452339992"><g><svg viewBox="0 0 278.2696 313.02673035951796" height="280" width="248.91001452339992"><g><svg viewBox="0 0 278.2696 313.02673035951796" height="313.02673035951796" width="278.2696"><g id="textblocktransform"><svg viewBox="0 0 278.2696 313.02673035951796" height="313.02673035951796" width="278.2696" id="textblock"><g><svg viewBox="0 0 278.2696 278.2696" height="278.2696" width="278.2696"><g transform="matrix(1,0,0,1,89.94321971048298,89.94321971048298)"><svg viewBox="0 0 98.38316057903407 98.38316057903407" height="98.38316057903407" width="98.38316057903407"><g id="icon-0"><svg xmlns="http://www.w3.org/2000/svg" xmlns:xlink="http://www.w3.org/1999/xlink" version="1.1" x="0" y="0" viewBox="0 0 100 100" enable-background="new 0 0 100 100" xml:space="preserve" height="98.38316057903407" width="98.38316057903407" class="icon-xg-0" data-fill-palette-color="accent" id="xg-0"><g fill="#5e1914" data-fill-palette-color="accent"><circle cx="73.3" cy="54.639" r="3.8" fill="#5e1914" data-fill-palette-color="accent"></circle><path d="M32.04 100V81.683h18.798V100h8.284V81.683h28.354V100h12.478c0.015-0.152 0.046-0.301 0.046-0.457V4.705C100 2.117 97.884 0 95.295 0H24.686c-2.587 0-4.705 2.117-4.705 4.705v33.193H0V100H32.04zM59.122 11.645h28.354v19.753H59.122V11.645zM59.122 46.733h28.354v19.753h-5.062v-1.172c0-3.143-2.557-5.699-5.699-5.699h-6.833c-3.143 0-5.699 2.557-5.699 5.699v1.172h-5.062V46.733zM32.04 11.645h18.798v19.753H32.04V11.645zM32.04 46.733h18.798v19.753H32.04V46.733z" fill="#5e1914" data-fill-palette-color="accent"></path></g></svg></g></svg></g><g id="text-0"><path d="M15.236 87.852l15.049 5.047-1.477 4.405-1.797-0.602c0.54 0.755 0.855 1.559 0.946 2.411 0.098 0.848 0 1.711-0.295 2.59v0c-0.385 1.147-0.932 2.104-1.644 2.872-0.709 0.761-1.523 1.339-2.441 1.732-0.916 0.387-1.908 0.586-2.975 0.597-1.064 0.004-2.144-0.177-3.24-0.545v0c-1.096-0.367-2.067-0.874-2.913-1.519-0.844-0.652-1.515-1.408-2.013-2.27-0.496-0.868-0.797-1.819-0.903-2.854-0.104-1.041 0.036-2.135 0.42-3.282v0c0.197-0.586 0.468-1.111 0.816-1.576 0.349-0.471 0.757-0.873 1.223-1.205 0.464-0.326 0.975-0.584 1.534-0.772 0.557-0.182 1.141-0.276 1.754-0.283v0l-2.611-3.055zM21.243 94.788v0c-0.389-0.13-0.81-0.247-1.264-0.35-0.446-0.107-0.898-0.184-1.358-0.232-0.452-0.045-0.901-0.051-1.344-0.015-0.446 0.042-0.863 0.143-1.25 0.304-0.389 0.167-0.733 0.41-1.031 0.728-0.296 0.312-0.527 0.716-0.694 1.213v0c-0.167 0.497-0.222 0.957-0.165 1.379 0.057 0.423 0.191 0.815 0.403 1.177 0.212 0.362 0.483 0.694 0.814 0.996 0.333 0.296 0.697 0.563 1.091 0.802 0.395 0.239 0.802 0.45 1.223 0.633 0.412 0.188 0.809 0.346 1.191 0.474v0c0.382 0.128 0.797 0.243 1.245 0.343 0.446 0.107 0.898 0.184 1.358 0.232 0.459 0.048 0.91 0.054 1.354 0.019 0.453-0.04 0.872-0.14 1.259-0.301 0.387-0.161 0.731-0.393 1.031-0.696 0.3-0.303 0.534-0.703 0.7-1.2v0c0.152-0.452 0.191-0.886 0.117-1.3-0.067-0.412-0.212-0.805-0.434-1.177-0.222-0.372-0.504-0.715-0.846-1.027-0.333-0.317-0.694-0.605-1.082-0.863-0.39-0.251-0.787-0.473-1.19-0.665-0.401-0.198-0.777-0.356-1.128-0.474z" fill="#5e1914" data-fill-palette-color="primary"></path><path d="M33.6 69.866v0c1.014 0.554 1.879 1.227 2.596 2.016 0.717 0.79 1.244 1.653 1.582 2.589 0.338 0.936 0.467 1.925 0.387 2.968-0.08 1.043-0.411 2.096-0.991 3.157v0c-0.442 0.808-1.009 1.466-1.7 1.976-0.683 0.507-1.487 0.822-2.412 0.944v0l8.091 4.424-2.229 4.076-20.355-11.13 0.86-1.574 4.011-0.15c-0.41-0.454-0.736-0.95-0.978-1.488-0.245-0.532-0.404-1.082-0.476-1.651-0.072-0.568-0.056-1.137 0.049-1.707 0.108-0.576 0.309-1.133 0.602-1.669v0c0.58-1.061 1.288-1.907 2.123-2.538 0.835-0.631 1.738-1.056 2.708-1.276 0.97-0.22 1.981-0.241 3.033-0.064 1.052 0.177 2.085 0.543 3.099 1.097zM31.337 74.004v0c-0.354-0.193-0.738-0.38-1.152-0.561-0.42-0.184-0.852-0.34-1.295-0.467-0.443-0.128-0.888-0.21-1.335-0.248-0.443-0.043-0.87-0.02-1.279 0.071-0.409 0.09-0.79 0.261-1.142 0.512-0.352 0.252-0.651 0.601-0.895 1.05v0c-0.255 0.466-0.396 0.913-0.424 1.342-0.028 0.429 0.029 0.843 0.171 1.242 0.142 0.399 0.35 0.774 0.626 1.123 0.273 0.356 0.579 0.684 0.92 0.986 0.347 0.304 0.711 0.584 1.092 0.838 0.387 0.258 0.761 0.485 1.121 0.682v0c0.324 0.177 0.694 0.349 1.108 0.514 0.415 0.166 0.849 0.303 1.302 0.413 0.453 0.11 0.907 0.182 1.363 0.217 0.465 0.032 0.909 0.003 1.334-0.086 0.421-0.084 0.806-0.241 1.154-0.472 0.357-0.233 0.65-0.559 0.879-0.978v0c0.248-0.454 0.383-0.897 0.405-1.329 0.019-0.426-0.044-0.836-0.189-1.229-0.145-0.393-0.358-0.766-0.64-1.119-0.273-0.356-0.582-0.686-0.929-0.991-0.347-0.304-0.711-0.584-1.092-0.838-0.382-0.255-0.749-0.479-1.103-0.672z" fill="#5e1914" data-fill-palette-color="primary"></path><path d="M40.754 48.132l12.372 9.944-2.91 3.622-1.477-1.187c0.246 0.896 0.263 1.759 0.052 2.589-0.201 0.83-0.592 1.606-1.173 2.328v0c-0.758 0.943-1.603 1.651-2.536 2.126-0.929 0.469-1.892 0.729-2.89 0.78-0.994 0.046-1.993-0.111-2.997-0.47-1-0.364-1.951-0.908-2.851-1.632v0c-0.901-0.724-1.637-1.535-2.208-2.434-0.567-0.904-0.934-1.846-1.103-2.826-0.165-0.986-0.118-1.982 0.141-2.99 0.263-1.013 0.773-1.991 1.53-2.933v0c0.387-0.482 0.824-0.881 1.311-1.197 0.491-0.321 1.012-0.557 1.564-0.708 0.548-0.146 1.117-0.21 1.707-0.192 0.585 0.022 1.167 0.136 1.743 0.34v0l-1.392-3.769zM43.99 56.719v0c-0.319-0.257-0.675-0.512-1.066-0.766-0.381-0.255-0.779-0.484-1.193-0.687-0.409-0.199-0.828-0.359-1.256-0.48-0.433-0.115-0.859-0.165-1.278-0.147-0.423 0.022-0.829 0.131-1.219 0.326-0.386 0.19-0.742 0.489-1.071 0.898v0c-0.328 0.408-0.539 0.821-0.632 1.237-0.093 0.416-0.103 0.831-0.03 1.243 0.074 0.413 0.213 0.818 0.419 1.216 0.21 0.393 0.459 0.77 0.747 1.13 0.288 0.361 0.597 0.7 0.928 1.018 0.321 0.319 0.639 0.604 0.953 0.857v0c0.314 0.253 0.664 0.504 1.05 0.753 0.381 0.255 0.779 0.484 1.193 0.687 0.414 0.203 0.835 0.365 1.264 0.486 0.438 0.12 0.867 0.171 1.286 0.154 0.419-0.017 0.821-0.116 1.208-0.296 0.387-0.181 0.744-0.475 1.072-0.884v0c0.299-0.372 0.485-0.765 0.56-1.179 0.08-0.41 0.08-0.828 0-1.254-0.08-0.426-0.226-0.845-0.438-1.257-0.203-0.413-0.441-0.807-0.717-1.184-0.279-0.371-0.575-0.716-0.887-1.036-0.308-0.325-0.606-0.603-0.893-0.835z" fill="#5e1914" data-fill-palette-color="primary"></path><path d="M57.186 34.844v0l0.946 4.97c-0.327-0.204-0.707-0.417-1.143-0.641-0.435-0.224-0.882-0.401-1.341-0.531-0.455-0.125-0.904-0.169-1.348-0.132-0.45 0.042-0.847 0.217-1.193 0.527v0c-0.32 0.287-0.527 0.616-0.618 0.986-0.087 0.376-0.095 0.77-0.023 1.183 0.068 0.408 0.197 0.825 0.388 1.25 0.191 0.424 0.408 0.834 0.653 1.228 0.245 0.385 0.497 0.741 0.754 1.069 0.258 0.328 0.488 0.605 0.69 0.83v0l5.31 5.932-3.477 3.113-10.587-11.827 1.337-1.196 3.863 1.505c-0.204-0.62-0.349-1.225-0.435-1.815-0.091-0.595-0.095-1.169-0.011-1.721 0.078-0.557 0.253-1.092 0.524-1.606 0.271-0.513 0.664-1.001 1.18-1.462v0c0.265-0.238 0.581-0.479 0.946-0.725 0.366-0.256 0.754-0.467 1.163-0.635 0.409-0.177 0.823-0.299 1.241-0.367 0.418-0.067 0.811-0.046 1.181 0.065z" fill="#5e1914" data-fill-palette-color="primary"></path><path d="M66.732 28.844l7.837 11.635-3.861 2.601-7.838-11.635-2.39 1.61-1.031-1.53 2.391-1.61-3.266-4.848 3.862-2.601 3.266 4.848 3.995-2.691 1.031 1.529z" fill="#5e1914" data-fill-palette-color="primary"></path><path d="M100.064 17.793v0c0.447 0.993 0.796 2.081 1.048 3.264 0.252 1.183 0.397 2.381 0.434 3.595 0.037 1.213-0.036 2.41-0.219 3.59-0.186 1.174-0.491 2.258-0.913 3.251v0l-1.979-0.149c0.043-0.543 0.045-1.129 0.004-1.759-0.043-0.636-0.117-1.292-0.221-1.966-0.105-0.675-0.236-1.36-0.394-2.055-0.161-0.686-0.341-1.364-0.539-2.034-0.192-0.672-0.4-1.316-0.625-1.93-0.231-0.611-0.463-1.177-0.697-1.697v0c-0.13-0.288-0.278-0.601-0.445-0.939-0.173-0.335-0.364-0.661-0.573-0.979-0.209-0.318-0.44-0.609-0.69-0.872-0.245-0.266-0.517-0.478-0.818-0.638-0.303-0.166-0.625-0.26-0.967-0.283-0.345-0.014-0.714 0.067-1.106 0.243v0c-0.386 0.174-0.668 0.422-0.847 0.746-0.179 0.323-0.292 0.695-0.339 1.114-0.044 0.41-0.032 0.847 0.037 1.309 0.072 0.454 0.17 0.903 0.296 1.348 0.13 0.435 0.271 0.847 0.423 1.235 0.144 0.385 0.273 0.706 0.389 0.963v0l3.266 7.261-4.218 1.898-3.035-6.747c-0.13-0.288-0.285-0.642-0.466-1.061-0.179-0.413-0.385-0.84-0.62-1.279-0.228-0.442-0.483-0.869-0.764-1.281-0.281-0.411-0.586-0.753-0.914-1.025-0.329-0.272-0.69-0.452-1.083-0.541-0.393-0.088-0.811-0.033-1.252 0.165v0c-0.374 0.168-0.642 0.414-0.806 0.739-0.158 0.321-0.248 0.686-0.27 1.094-0.025 0.402 0.006 0.833 0.096 1.294 0.087 0.455 0.202 0.9 0.346 1.336 0.136 0.433 0.284 0.837 0.447 1.213 0.162 0.377 0.297 0.684 0.404 0.924v0l3.266 7.261-4.255 1.914-6.512-14.476 1.636-0.736 3.071 2.674c-0.177-1.327-0.036-2.488 0.422-3.483 0.465-0.997 1.322-1.777 2.572-2.339v0c1.127-0.507 2.17-0.696 3.127-0.567 0.951 0.132 1.878 0.629 2.781 1.49v0c0.032-0.567 0.116-1.102 0.251-1.605 0.129-0.5 0.316-0.96 0.561-1.38 0.252-0.423 0.567-0.804 0.945-1.143 0.381-0.333 0.84-0.621 1.379-0.863v0c0.98-0.441 1.891-0.659 2.734-0.655 0.845 0.011 1.617 0.197 2.318 0.559 0.697 0.371 1.324 0.904 1.879 1.598 0.546 0.69 1.024 1.491 1.435 2.404z" fill="#5e1914" data-fill-palette-color="primary"></path><path d="M109.811 17.315v0c0.585 0.002 1.161-0.022 1.728-0.072 0.574-0.051 1.143-0.138 1.707-0.262v0c0.591-0.13 1.126-0.307 1.606-0.53 0.481-0.223 0.878-0.51 1.193-0.862 0.31-0.343 0.524-0.759 0.644-1.246 0.12-0.487 0.108-1.056-0.035-1.705v0c-0.117-0.531-0.296-0.998-0.536-1.399-0.241-0.408-0.538-0.738-0.889-0.991-0.352-0.253-0.753-0.419-1.204-0.498-0.446-0.087-0.941-0.071-1.486 0.049v0c-0.512 0.113-0.95 0.309-1.315 0.589-0.366 0.273-0.668 0.605-0.905 0.994-0.239 0.383-0.424 0.809-0.554 1.278-0.124 0.468-0.207 0.947-0.251 1.438-0.045 0.485-0.045 0.966-0.001 1.446 0.037 0.48 0.101 0.927 0.192 1.34v0c0.016 0.072 0.032 0.144 0.048 0.217 0.016 0.072 0.035 0.144 0.058 0.214zM120.316 11.789v0c0.14 0.636 0.163 1.223 0.068 1.76-0.093 0.543-0.276 1.041-0.548 1.493-0.27 0.459-0.61 0.867-1.02 1.226-0.408 0.365-0.856 0.688-1.345 0.968-0.495 0.281-1.014 0.519-1.555 0.714-0.542 0.195-1.078 0.351-1.61 0.469v0c-0.669 0.148-1.342 0.248-2.019 0.3-0.671 0.045-1.348 0.036-2.028-0.027v0c0.229 0.569 0.51 1.095 0.843 1.579 0.327 0.485 0.715 0.888 1.164 1.208 0.449 0.321 0.958 0.539 1.528 0.654 0.576 0.114 1.221 0.092 1.936-0.065v0c0.479-0.106 0.916-0.274 1.312-0.506 0.395-0.238 0.743-0.529 1.047-0.871 0.304-0.335 0.551-0.713 0.74-1.134 0.197-0.415 0.333-0.861 0.407-1.338v0l2.117 0.287c-0.139 0.774-0.411 1.477-0.815 2.109-0.399 0.625-0.886 1.176-1.462 1.654-0.576 0.478-1.21 0.879-1.901 1.204-0.694 0.318-1.398 0.556-2.113 0.713v0c-1.181 0.26-2.317 0.304-3.408 0.132-1.092-0.179-2.078-0.546-2.957-1.102-0.886-0.555-1.642-1.286-2.269-2.193-0.632-0.9-1.078-1.94-1.339-3.121v0c-0.26-1.181-0.293-2.312-0.098-3.395 0.187-1.087 0.566-2.068 1.136-2.944 0.564-0.874 1.304-1.622 2.22-2.243 0.917-0.615 1.966-1.053 3.147-1.314v0c0.571-0.126 1.163-0.215 1.778-0.268 0.621-0.054 1.233-0.055 1.836-0.002 0.602 0.046 1.183 0.155 1.744 0.327 0.559 0.166 1.071 0.411 1.535 0.735 0.464 0.324 0.863 0.732 1.198 1.222 0.335 0.49 0.579 1.08 0.731 1.769z" fill="#5e1914" data-fill-palette-color="primary"></path><path d="M142.38 11.941v0c0.057 1.073-0.014 2.198-0.213 3.372-0.2 1.175-0.501 2.335-0.904 3.48-0.41 1.139-0.914 2.219-1.512 3.24-0.598 1.014-1.268 1.898-2.008 2.65v0l-1.791-0.853c0.224-0.469 0.431-0.992 0.622-1.567 0.191-0.582 0.357-1.197 0.497-1.843 0.147-0.64 0.273-1.303 0.378-1.988 0.105-0.685 0.186-1.362 0.245-2.032 0.065-0.67 0.104-1.318 0.118-1.944 0.02-0.634 0.016-1.219-0.013-1.755v0c-0.019-0.362-0.053-0.744-0.102-1.146-0.055-0.407-0.138-0.813-0.247-1.218-0.102-0.398-0.237-0.781-0.404-1.149-0.168-0.368-0.38-0.686-0.637-0.955-0.257-0.276-0.565-0.491-0.923-0.647-0.351-0.149-0.758-0.212-1.221-0.187v0c-0.456 0.024-0.86 0.147-1.211 0.368-0.344 0.227-0.645 0.516-0.903 0.866-0.257 0.343-0.472 0.738-0.643 1.184-0.172 0.44-0.309 0.888-0.412 1.345-0.096 0.463-0.16 0.913-0.19 1.352-0.03 0.446-0.036 0.84-0.018 1.182v0l0.425 7.95-4.659 0.249-0.848-15.85 1.791-0.096 2.321 3.58c0.222-0.631 0.511-1.208 0.867-1.732 0.362-0.524 0.775-0.977 1.239-1.358 0.464-0.381 0.986-0.685 1.566-0.911 0.58-0.219 1.213-0.347 1.897-0.384v0c1.1-0.059 2.066 0.068 2.897 0.38 0.838 0.312 1.542 0.772 2.112 1.381 0.578 0.608 1.02 1.342 1.329 2.199 0.315 0.858 0.5 1.803 0.555 2.837z" fill="#5e1914" data-fill-palette-color="primary"></path><path d="M154.339 8.124l-1.429 13.956-4.632-0.475 1.429-13.955-2.867-0.294 0.188-1.835 2.867 0.294 0.596-5.815 4.632 0.474-0.596 5.815 4.792 0.491-0.188 1.835z" fill="#5e1914" data-fill-palette-color="primary"></path><path d="M168.795 16.227l-1.98 8.396-5.316-1.253 4.541-19.265 13.831 3.26-0.58 2.462-8.515-2.007-1.403 5.954 6.582 1.552-0.578 2.452z" fill="#5e1914" data-fill-palette-color="primary"></path><path d="M196.401 26.818v0c-0.316 0.764-0.716 1.438-1.198 2.024-0.474 0.582-1.009 1.084-1.606 1.506-0.594 0.416-1.239 0.745-1.936 0.987-0.697 0.242-1.413 0.393-2.15 0.451-0.733 0.067-1.479 0.042-2.237-0.075-0.758-0.118-1.504-0.328-2.237-0.632v0c-0.726-0.301-1.396-0.676-2.009-1.127-0.62-0.453-1.165-0.962-1.636-1.528-0.48-0.562-0.88-1.175-1.202-1.839-0.315-0.661-0.536-1.349-0.662-2.063-0.124-0.72-0.149-1.458-0.076-2.214 0.075-0.761 0.269-1.518 0.58-2.268v0c0.311-0.751 0.709-1.423 1.194-2.015 0.482-0.586 1.022-1.089 1.618-1.511 0.594-0.416 1.236-0.746 1.927-0.991 0.697-0.242 1.413-0.393 2.15-0.451 0.733-0.067 1.479-0.042 2.238 0.075 0.752 0.115 1.491 0.323 2.217 0.624v0c0.732 0.303 1.409 0.681 2.029 1.135 0.62 0.453 1.165 0.962 1.636 1.528 0.48 0.562 0.88 1.175 1.201 1.839 0.321 0.664 0.545 1.353 0.671 2.067 0.124 0.72 0.146 1.457 0.067 2.21-0.075 0.761-0.269 1.518-0.579 2.268zM192.034 25.01v0c0.167-0.403 0.32-0.842 0.457-1.316 0.144-0.471 0.252-0.95 0.323-1.437 0.068-0.481 0.093-0.962 0.073-1.442-0.028-0.477-0.119-0.925-0.271-1.345-0.156-0.414-0.392-0.791-0.709-1.134-0.308-0.346-0.722-0.626-1.244-0.842v0c-0.49-0.203-0.963-0.29-1.419-0.261-0.456 0.029-0.891 0.14-1.305 0.333-0.414 0.192-0.798 0.451-1.151 0.777-0.362 0.33-0.692 0.688-0.99 1.074-0.298 0.386-0.567 0.79-0.808 1.214-0.232 0.42-0.429 0.826-0.591 1.217v0c-0.162 0.391-0.309 0.817-0.443 1.279-0.129 0.47-0.226 0.95-0.29 1.439-0.065 0.49-0.084 0.976-0.059 1.459 0.022 0.474 0.111 0.926 0.268 1.355 0.157 0.429 0.386 0.814 0.688 1.157 0.302 0.343 0.698 0.616 1.188 0.819v0c0.509 0.211 0.996 0.307 1.462 0.29 0.468-0.024 0.905-0.131 1.31-0.32 0.412-0.186 0.793-0.439 1.143-0.759 0.351-0.32 0.673-0.677 0.968-1.072 0.3-0.392 0.565-0.802 0.793-1.231 0.235-0.426 0.437-0.844 0.607-1.254z" fill="#5e1914" data-fill-palette-color="primary"></path><path d="M199.739 30.086v0c0.383-0.608 0.833-1.21 1.351-1.805 0.523-0.591 1.089-1.156 1.698-1.694 0.614-0.534 1.263-1.035 1.946-1.502 0.683-0.467 1.387-0.885 2.112-1.255v0l2.874 1.81c-0.564 0.455-1.119 0.951-1.664 1.489-0.551 0.534-1.078 1.088-1.581 1.66-0.505 0.563-0.976 1.128-1.413 1.695-0.436 0.567-0.819 1.112-1.148 1.635v0c-0.19 0.301-0.38 0.634-0.57 0.999-0.186 0.359-0.355 0.733-0.505 1.123-0.15 0.39-0.26 0.785-0.33 1.186-0.075 0.397-0.088 0.782-0.037 1.156 0.045 0.37 0.168 0.717 0.369 1.041 0.2 0.325 0.5 0.612 0.897 0.863v0c0.387 0.243 0.789 0.374 1.207 0.391 0.414 0.023 0.828-0.035 1.24-0.172 0.412-0.137 0.812-0.338 1.201-0.602 0.394-0.26 0.764-0.551 1.109-0.873 0.348-0.313 0.664-0.638 0.948-0.975 0.278-0.341 0.509-0.656 0.691-0.947v0l4.242-6.737 3.932 2.476-8.458 13.432-1.51-0.951 0.172-4.263c-0.557 0.38-1.127 0.68-1.71 0.9-0.589 0.217-1.183 0.347-1.782 0.391-0.608 0.046-1.213-0.009-1.814-0.166-0.598-0.147-1.19-0.404-1.776-0.773v0c-0.927-0.584-1.642-1.244-2.146-1.982-0.495-0.74-0.804-1.523-0.928-2.347-0.118-0.821-0.058-1.672 0.18-2.555 0.244-0.879 0.645-1.762 1.203-2.648z" fill="#5e1914" data-fill-palette-color="primary"></path><path d="M231.786 51.807v0c-0.72 0.798-1.567 1.54-2.541 2.228-0.973 0.687-2.008 1.292-3.104 1.813-1.097 0.513-2.218 0.917-3.363 1.214-1.141 0.291-2.24 0.44-3.295 0.446v0l-0.659-1.872c0.491-0.172 1.007-0.394 1.55-0.664 0.547-0.275 1.1-0.591 1.657-0.948 0.558-0.347 1.117-0.725 1.676-1.134 0.559-0.409 1.097-0.829 1.613-1.26 0.521-0.426 1.008-0.855 1.461-1.287 0.463-0.433 0.875-0.849 1.235-1.248v0c0.243-0.269 0.49-0.563 0.74-0.879 0.25-0.327 0.48-0.671 0.69-1.034 0.21-0.353 0.387-0.719 0.529-1.098 0.142-0.378 0.218-0.753 0.228-1.124 0.014-0.377-0.05-0.747-0.192-1.111-0.142-0.354-0.385-0.687-0.729-0.997v0c-0.339-0.306-0.711-0.506-1.115-0.6-0.404-0.084-0.821-0.094-1.25-0.029-0.425 0.06-0.856 0.186-1.294 0.38-0.433 0.189-0.847 0.407-1.244 0.655-0.396 0.258-0.76 0.531-1.093 0.82-0.337 0.293-0.62 0.567-0.85 0.821v0l-5.336 5.909-3.463-3.127 10.638-11.781 1.332 1.202-0.901 4.17c0.604-0.288 1.217-0.49 1.839-0.607 0.627-0.113 1.239-0.139 1.837-0.079 0.598 0.06 1.181 0.216 1.75 0.467 0.565 0.257 1.102 0.615 1.61 1.074v0c0.818 0.738 1.409 1.512 1.774 2.321 0.37 0.814 0.54 1.637 0.511 2.472-0.024 0.838-0.231 1.67-0.622 2.493-0.386 0.828-0.926 1.627-1.619 2.394z" fill="#5e1914" data-fill-palette-color="primary"></path><path d="M255.216 61.098l-17.141 13.337-1.102-1.416 1.458-3.739c-0.58 0.196-1.162 0.295-1.746 0.299-0.586 0.013-1.151-0.062-1.696-0.226-0.55-0.16-1.068-0.399-1.555-0.718-0.486-0.329-0.916-0.734-1.291-1.217v0c-0.743-0.954-1.237-1.94-1.484-2.957-0.247-1.017-0.275-2.016-0.086-2.998 0.184-0.978 0.567-1.914 1.148-2.809 0.581-0.895 1.325-1.695 2.231-2.4v0c0.912-0.71 1.873-1.236 2.883-1.579 1.01-0.343 2.011-0.484 3.005-0.422 0.988 0.066 1.944 0.343 2.869 0.832 0.925 0.489 1.759 1.211 2.502 2.165v0c0.565 0.726 0.947 1.507 1.144 2.34 0.193 0.828 0.16 1.693-0.101 2.594v0l6.108-4.753zM241.447 65.886v0c0.292-0.227 0.596-0.498 0.913-0.812 0.312-0.311 0.608-0.652 0.889-1.024 0.281-0.372 0.528-0.76 0.741-1.164 0.214-0.414 0.365-0.833 0.452-1.258 0.091-0.42 0.1-0.84 0.028-1.261-0.073-0.411-0.256-0.805-0.549-1.181v0c-0.318-0.408-0.67-0.708-1.059-0.901-0.384-0.187-0.785-0.292-1.203-0.315-0.418-0.023-0.843 0.022-1.273 0.135-0.44 0.113-0.869 0.267-1.286 0.465-0.412 0.193-0.81 0.414-1.196 0.662-0.38 0.245-0.732 0.493-1.055 0.744v0c-0.318 0.248-0.642 0.525-0.973 0.834-0.336 0.312-0.648 0.644-0.936 0.997-0.293 0.356-0.549 0.733-0.766 1.132-0.221 0.394-0.372 0.796-0.453 1.208-0.08 0.411-0.077 0.826 0.01 1.243 0.091 0.423 0.295 0.839 0.613 1.247v0c0.322 0.414 0.676 0.721 1.063 0.923 0.382 0.196 0.785 0.309 1.207 0.337 0.423 0.029 0.849-0.014 1.28-0.127 0.435-0.109 0.861-0.261 1.278-0.458 0.422-0.201 0.826-0.426 1.212-0.675 0.385-0.249 0.74-0.499 1.063-0.751z" fill="#5e1914" data-fill-palette-color="primary"></path><path d="M248.968 78.571v0c0.155 0.564 0.331 1.113 0.531 1.647 0.202 0.539 0.438 1.064 0.708 1.574v0c0.283 0.534 0.596 1.003 0.94 1.407 0.343 0.404 0.726 0.71 1.149 0.92 0.414 0.207 0.871 0.303 1.372 0.288 0.502-0.015 1.046-0.178 1.634-0.49v0c0.481-0.255 0.883-0.551 1.206-0.889 0.329-0.341 0.568-0.715 0.717-1.122 0.15-0.406 0.203-0.837 0.159-1.293-0.035-0.453-0.183-0.926-0.444-1.418v0c-0.245-0.463-0.552-0.833-0.919-1.11-0.361-0.28-0.761-0.482-1.2-0.608-0.433-0.128-0.893-0.192-1.379-0.192-0.484 0.005-0.968 0.053-1.453 0.142-0.479 0.086-0.943 0.215-1.393 0.385-0.453 0.164-0.866 0.345-1.241 0.543v0c-0.065 0.035-0.131 0.069-0.195 0.104-0.065 0.035-0.129 0.072-0.192 0.112zM257.098 87.22v0c-0.576 0.305-1.135 0.484-1.678 0.536-0.549 0.055-1.077 0.012-1.586-0.13-0.514-0.138-0.999-0.357-1.453-0.655-0.461-0.296-0.891-0.642-1.291-1.038-0.403-0.402-0.771-0.838-1.104-1.309-0.333-0.47-0.626-0.945-0.882-1.426v0c-0.321-0.606-0.597-1.227-0.828-1.865-0.222-0.635-0.394-1.289-0.515-1.962v0c-0.487 0.372-0.919 0.784-1.296 1.234-0.38 0.445-0.665 0.926-0.854 1.445-0.189 0.518-0.263 1.067-0.223 1.646 0.044 0.585 0.237 1.201 0.58 1.848v0c0.23 0.433 0.509 0.81 0.838 1.13 0.335 0.317 0.708 0.575 1.118 0.776 0.405 0.204 0.835 0.341 1.29 0.412 0.453 0.079 0.919 0.091 1.399 0.034v0l0.289 2.117c-0.783 0.073-1.533-0.001-2.251-0.222-0.708-0.218-1.37-0.54-1.984-0.968-0.614-0.427-1.17-0.931-1.667-1.511-0.492-0.584-0.909-1.199-1.252-1.846v0c-0.566-1.069-0.912-2.151-1.037-3.249-0.119-1.1-0.028-2.148 0.273-3.144 0.298-1.002 0.801-1.926 1.508-2.772 0.698-0.849 1.582-1.557 2.65-2.123v0c1.069-0.566 2.15-0.9 3.245-1.001 1.097-0.11 2.144-0.007 3.141 0.31 0.993 0.31 1.911 0.824 2.755 1.539 0.837 0.72 1.539 1.614 2.105 2.683v0c0.274 0.517 0.518 1.064 0.733 1.642 0.218 0.584 0.382 1.174 0.493 1.769 0.116 0.592 0.166 1.182 0.15 1.768-0.01 0.583-0.11 1.142-0.299 1.675-0.189 0.533-0.475 1.027-0.858 1.481-0.383 0.454-0.886 0.846-1.509 1.176z" fill="#5e1914" data-fill-palette-color="primary"></path><path d="M267.199 104.096v0l-4.951-1.043c0.314-0.223 0.658-0.492 1.032-0.807 0.374-0.315 0.71-0.659 1.007-1.032 0.291-0.371 0.504-0.769 0.641-1.194 0.135-0.431 0.126-0.865-0.026-1.304v0c-0.141-0.406-0.365-0.723-0.672-0.95-0.313-0.225-0.674-0.384-1.083-0.477-0.403-0.095-0.837-0.136-1.302-0.124-0.465 0.012-0.927 0.055-1.385 0.129-0.449 0.078-0.875 0.173-1.278 0.284-0.402 0.111-0.746 0.217-1.032 0.316v0l-7.52 2.615-1.532-4.408 14.993-5.212 0.589 1.695-2.878 2.985c0.651 0.051 1.265 0.151 1.843 0.298 0.584 0.146 1.115 0.363 1.592 0.652 0.484 0.287 0.91 0.654 1.28 1.103 0.369 0.448 0.667 0.999 0.894 1.652v0c0.117 0.336 0.219 0.721 0.305 1.153 0.095 0.436 0.141 0.876 0.138 1.318 0.006 0.446-0.041 0.875-0.14 1.286-0.099 0.411-0.271 0.766-0.515 1.065z" fill="#5e1914" data-fill-palette-color="primary"></path><path d="M30.284 187.46l-15.049 5.048-1.477-4.405 1.796-0.603c-0.886-0.277-1.622-0.728-2.208-1.353-0.59-0.617-1.032-1.365-1.327-2.245v0c-0.385-1.147-0.525-2.241-0.42-3.281 0.106-1.035 0.407-1.986 0.903-2.854 0.498-0.861 1.169-1.618 2.013-2.27 0.847-0.645 1.818-1.152 2.913-1.519v0c1.096-0.367 2.176-0.549 3.24-0.545 1.067 0.011 2.058 0.21 2.975 0.597 0.919 0.393 1.732 0.971 2.441 1.732 0.711 0.768 1.259 1.725 1.644 2.872v0c0.197 0.586 0.296 1.169 0.299 1.749 0.005 0.586-0.078 1.153-0.248 1.699-0.173 0.54-0.426 1.054-0.759 1.541-0.335 0.481-0.744 0.909-1.228 1.283v0l3.925 0.863zM21.309 185.549v0c0.389-0.13 0.795-0.291 1.22-0.484 0.42-0.183 0.828-0.395 1.223-0.633 0.388-0.237 0.749-0.503 1.082-0.799 0.331-0.302 0.602-0.634 0.814-0.996 0.21-0.368 0.337-0.769 0.383-1.202 0.048-0.427-0.011-0.889-0.178-1.386v0c-0.167-0.497-0.4-0.897-0.7-1.2-0.3-0.303-0.644-0.535-1.031-0.696-0.387-0.161-0.804-0.262-1.25-0.304-0.444-0.035-0.896-0.029-1.354 0.019-0.459 0.048-0.911 0.125-1.357 0.232-0.442 0.099-0.854 0.212-1.236 0.34v0c-0.382 0.128-0.782 0.287-1.201 0.477-0.42 0.183-0.828 0.395-1.222 0.633-0.395 0.239-0.759 0.506-1.092 0.802-0.337 0.304-0.612 0.637-0.823 0.999-0.212 0.362-0.346 0.754-0.403 1.177-0.057 0.423-0.002 0.883 0.165 1.38v0c0.152 0.452 0.382 0.822 0.691 1.107 0.302 0.288 0.654 0.514 1.056 0.677 0.402 0.163 0.833 0.266 1.294 0.31 0.457 0.052 0.918 0.064 1.383 0.036 0.463-0.035 0.913-0.097 1.351-0.188 0.44-0.084 0.835-0.184 1.185-0.301z" fill="#5e1914" data-fill-palette-color="primary"></path><path d="M33.661 210.46v0c-1.014 0.554-2.047 0.92-3.099 1.097-1.052 0.177-2.063 0.155-3.033-0.064-0.97-0.22-1.873-0.645-2.708-1.276-0.835-0.631-1.543-1.477-2.123-2.538v0c-0.442-0.808-0.69-1.64-0.745-2.498-0.058-0.849 0.111-1.695 0.506-2.54v0l-8.091 4.424-2.229-4.076 20.356-11.131 0.86 1.574-2.037 3.458c0.604-0.1 1.197-0.107 1.78-0.021 0.58 0.081 1.129 0.244 1.646 0.49 0.517 0.246 0.987 0.567 1.411 0.963 0.427 0.402 0.787 0.872 1.08 1.408v0c0.58 1.061 0.911 2.113 0.991 3.157 0.08 1.043-0.049 2.033-0.387 2.968-0.338 0.936-0.866 1.798-1.582 2.588-0.717 0.79-1.582 1.462-2.596 2.017zM31.398 206.322v0c0.354-0.193 0.718-0.416 1.094-0.667 0.382-0.255 0.746-0.534 1.092-0.839 0.347-0.304 0.656-0.634 0.929-0.99 0.276-0.35 0.486-0.721 0.631-1.115 0.145-0.393 0.206-0.806 0.185-1.238-0.022-0.432-0.155-0.872-0.401-1.32v0c-0.255-0.466-0.555-0.826-0.901-1.081-0.346-0.255-0.725-0.43-1.138-0.526-0.412-0.096-0.84-0.122-1.283-0.079-0.447 0.037-0.889 0.118-1.327 0.242-0.443 0.128-0.875 0.283-1.295 0.467-0.426 0.187-0.819 0.379-1.178 0.576v0c-0.324 0.177-0.668 0.396-1.032 0.656-0.363 0.26-0.713 0.551-1.05 0.873-0.337 0.322-0.643 0.666-0.918 1.03-0.278 0.374-0.494 0.764-0.647 1.169-0.157 0.4-0.232 0.808-0.226 1.226 0.004 0.427 0.12 0.85 0.349 1.268v0c0.248 0.454 0.548 0.807 0.9 1.059 0.349 0.246 0.728 0.414 1.137 0.504 0.409 0.09 0.838 0.112 1.288 0.065 0.447-0.037 0.892-0.12 1.335-0.247 0.443-0.128 0.875-0.283 1.295-0.467 0.42-0.184 0.807-0.372 1.161-0.566z" fill="#5e1914" data-fill-palette-color="primary"></path><path d="M53.126 222.283l-12.372 9.944-2.911-3.621 1.477-1.187c-0.927 0.047-1.774-0.121-2.54-0.506-0.767-0.375-1.441-0.924-2.022-1.646v0c-0.758-0.943-1.268-1.92-1.53-2.934-0.258-1.008-0.305-2.005-0.141-2.99 0.169-0.98 0.537-1.922 1.104-2.826 0.571-0.898 1.307-1.71 2.207-2.434v0c0.901-0.724 1.851-1.268 2.851-1.632 1.004-0.359 2.003-0.516 2.998-0.47 0.998 0.051 1.961 0.311 2.89 0.781 0.933 0.474 1.778 1.183 2.535 2.125v0c0.387 0.482 0.683 0.994 0.887 1.537 0.208 0.548 0.326 1.108 0.355 1.681 0.024 0.567-0.035 1.136-0.179 1.708-0.148 0.567-0.384 1.11-0.708 1.629v0l3.981-0.549zM44.044 223.596v0c0.319-0.257 0.645-0.549 0.977-0.876 0.331-0.318 0.64-0.657 0.928-1.017 0.282-0.356 0.529-0.731 0.739-1.124 0.206-0.398 0.345-0.803 0.419-1.216 0.069-0.418 0.051-0.838-0.057-1.261-0.103-0.417-0.318-0.83-0.646-1.238v0c-0.328-0.408-0.686-0.703-1.073-0.884-0.387-0.181-0.789-0.279-1.208-0.296-0.419-0.017-0.845 0.032-1.277 0.147-0.429 0.121-0.85 0.283-1.265 0.487-0.414 0.203-0.812 0.433-1.193 0.687-0.38 0.245-0.728 0.494-1.042 0.747v0c-0.314 0.253-0.635 0.54-0.961 0.863-0.331 0.318-0.64 0.657-0.928 1.017-0.288 0.361-0.537 0.737-0.746 1.131-0.211 0.402-0.353 0.81-0.427 1.222-0.074 0.413-0.064 0.827 0.029 1.243 0.093 0.416 0.304 0.829 0.633 1.237v0c0.299 0.372 0.643 0.639 1.031 0.801 0.383 0.166 0.792 0.256 1.225 0.269 0.433 0.014 0.874-0.039 1.322-0.157 0.447-0.109 0.883-0.258 1.31-0.445 0.422-0.193 0.823-0.407 1.203-0.644 0.384-0.231 0.719-0.462 1.007-0.693z" fill="#5e1914" data-fill-palette-color="primary"></path><path d="M65.904 235.776v0l-4.836 1.488c0.166-0.347 0.337-0.749 0.512-1.206 0.175-0.457 0.301-0.921 0.38-1.391 0.074-0.466 0.068-0.917-0.018-1.355-0.091-0.442-0.309-0.818-0.655-1.127v0c-0.32-0.287-0.67-0.455-1.048-0.506-0.383-0.045-0.776-0.009-1.179 0.108-0.398 0.112-0.798 0.287-1.199 0.523-0.401 0.236-0.784 0.498-1.148 0.784-0.355 0.286-0.682 0.575-0.98 0.868-0.298 0.292-0.548 0.551-0.749 0.777v0l-5.311 5.932-3.476-3.112 10.587-11.827 1.336 1.197-1.07 4.006c0.594-0.271 1.18-0.482 1.756-0.633 0.581-0.156 1.151-0.223 1.709-0.201 0.562 0.016 1.114 0.131 1.654 0.344 0.54 0.213 1.068 0.55 1.583 1.011v0c0.265 0.238 0.54 0.524 0.826 0.861 0.295 0.336 0.548 0.698 0.759 1.086 0.221 0.387 0.388 0.785 0.501 1.192 0.113 0.408 0.135 0.801 0.066 1.181z" fill="#5e1914" data-fill-palette-color="primary"></path><path d="M73.538 241.411l-7.837 11.635-3.862-2.601 7.838-11.636-2.391-1.61 1.03-1.53 2.391 1.611 3.266-4.848 3.861 2.601-3.265 4.848 3.995 2.691-1.03 1.53z" fill="#5e1914" data-fill-palette-color="primary"></path><path d="M101.151 260.15v0c-0.447 0.993-1.029 1.976-1.747 2.949-0.718 0.974-1.518 1.877-2.401 2.71-0.883 0.833-1.827 1.572-2.832 2.218-1.002 0.639-2.015 1.131-3.039 1.474v0l-1.202-1.58c0.435-0.328 0.874-0.715 1.32-1.163 0.448-0.454 0.889-0.945 1.324-1.471 0.436-0.526 0.861-1.079 1.276-1.658 0.406-0.576 0.794-1.16 1.165-1.753 0.376-0.59 0.719-1.172 1.029-1.747 0.304-0.578 0.573-1.127 0.807-1.648v0c0.13-0.288 0.265-0.606 0.408-0.955 0.136-0.351 0.254-0.711 0.352-1.079 0.099-0.368 0.164-0.733 0.195-1.095 0.036-0.359 0.015-0.704-0.065-1.035-0.077-0.337-0.22-0.641-0.43-0.912-0.218-0.268-0.524-0.49-0.916-0.666v0c-0.386-0.174-0.759-0.22-1.12-0.139-0.361 0.081-0.713 0.243-1.058 0.486-0.336 0.239-0.655 0.538-0.956 0.896-0.292 0.355-0.563 0.727-0.811 1.116-0.24 0.386-0.454 0.764-0.644 1.136-0.193 0.363-0.347 0.673-0.462 0.93v0l-3.266 7.261-4.219-1.898 3.034-6.746c0.13-0.288 0.291-0.639 0.485-1.053 0.191-0.408 0.373-0.845 0.546-1.312 0.179-0.464 0.33-0.938 0.452-1.422 0.122-0.483 0.175-0.938 0.16-1.364-0.014-0.426-0.119-0.816-0.314-1.169-0.195-0.353-0.513-0.629-0.954-0.827v0c-0.374-0.168-0.736-0.206-1.087-0.113-0.345 0.095-0.678 0.27-0.998 0.523-0.318 0.248-0.619 0.558-0.905 0.93-0.283 0.366-0.539 0.748-0.769 1.146-0.234 0.388-0.438 0.768-0.612 1.139-0.174 0.371-0.315 0.676-0.423 0.915v0l-3.266 7.261-4.255-1.914 6.511-14.476 1.636 0.736 0.036 4.072c0.876-1.013 1.838-1.678 2.887-1.995 1.055-0.314 2.207-0.19 3.457 0.373v0c1.127 0.507 1.96 1.162 2.498 1.963 0.532 0.799 0.775 1.822 0.73 3.069v0c0.446-0.352 0.901-0.644 1.367-0.877 0.459-0.235 0.928-0.4 1.405-0.495 0.483-0.092 0.977-0.109 1.482-0.051 0.502 0.064 1.022 0.217 1.562 0.459v0c0.98 0.441 1.748 0.978 2.303 1.61 0.552 0.639 0.926 1.341 1.119 2.106 0.185 0.768 0.202 1.59 0.052 2.466-0.154 0.866-0.436 1.756-0.847 2.669z" fill="#5e1914" data-fill-palette-color="primary"></path><path d="M109.635 263.842v0c0.53 0.248 1.063 0.468 1.598 0.662 0.542 0.195 1.095 0.355 1.659 0.48v0c0.591 0.13 1.151 0.195 1.68 0.195 0.53 0 1.011-0.093 1.445-0.28 0.425-0.181 0.795-0.468 1.108-0.86 0.313-0.392 0.542-0.913 0.685-1.562v0c0.117-0.531 0.151-1.03 0.102-1.495-0.047-0.471-0.177-0.896-0.39-1.273-0.213-0.377-0.507-0.697-0.882-0.958-0.368-0.267-0.824-0.46-1.369-0.58v0c-0.512-0.113-0.992-0.119-1.441-0.019-0.447 0.094-0.861 0.268-1.239 0.521-0.378 0.247-0.725 0.556-1.041 0.927-0.309 0.372-0.586 0.772-0.832 1.199-0.244 0.421-0.447 0.858-0.609 1.311-0.168 0.451-0.298 0.884-0.389 1.297v0c-0.016 0.072-0.032 0.144-0.048 0.217-0.016 0.072-0.029 0.145-0.037 0.218zM121.49 263.247v0c-0.14 0.636-0.366 1.178-0.679 1.625-0.313 0.454-0.688 0.829-1.125 1.125-0.438 0.302-0.918 0.53-1.441 0.683-0.524 0.16-1.066 0.264-1.627 0.312-0.568 0.047-1.138 0.045-1.712-0.006-0.574-0.051-1.126-0.135-1.657-0.252v0c-0.669-0.148-1.322-0.34-1.958-0.576-0.628-0.242-1.238-0.534-1.829-0.878v0c-0.032 0.612 0.002 1.208 0.101 1.787 0.093 0.578 0.275 1.107 0.548 1.586 0.273 0.48 0.643 0.892 1.111 1.236 0.474 0.345 1.069 0.597 1.784 0.755v0c0.479 0.106 0.947 0.137 1.404 0.092 0.458-0.05 0.897-0.167 1.315-0.349 0.417-0.176 0.8-0.415 1.149-0.717 0.354-0.294 0.664-0.641 0.932-1.044v0l1.8 1.151c-0.452 0.643-0.994 1.167-1.626 1.571-0.625 0.399-1.299 0.694-2.022 0.886-0.723 0.191-1.467 0.289-2.232 0.292-0.763-0.003-1.502-0.084-2.217-0.241v0c-1.181-0.26-2.23-0.698-3.147-1.314-0.916-0.622-1.655-1.37-2.22-2.243-0.571-0.876-0.949-1.857-1.136-2.944-0.195-1.082-0.162-2.213 0.098-3.395v0c0.26-1.181 0.707-2.221 1.339-3.121 0.627-0.908 1.383-1.639 2.269-2.193 0.879-0.556 1.865-0.923 2.957-1.102 1.091-0.172 2.226-0.128 3.408 0.132v0c0.571 0.126 1.146 0.294 1.725 0.504 0.586 0.212 1.142 0.469 1.667 0.77 0.527 0.295 1.008 0.639 1.445 1.031 0.438 0.386 0.799 0.823 1.083 1.312 0.284 0.489 0.475 1.027 0.574 1.613 0.098 0.586 0.071 1.223-0.081 1.912z" fill="#5e1914" data-fill-palette-color="primary"></path><path d="M142.505 266.094v0c-0.057 1.073-0.248 2.184-0.572 3.331-0.324 1.147-0.747 2.268-1.27 3.363-0.529 1.089-1.146 2.109-1.849 3.06-0.703 0.945-1.463 1.752-2.279 2.422v0l-1.691-1.039c0.273-0.443 0.535-0.94 0.787-1.493 0.252-0.558 0.482-1.152 0.69-1.779 0.215-0.621 0.411-1.266 0.588-1.937 0.177-0.67 0.33-1.335 0.46-1.994 0.136-0.659 0.244-1.299 0.325-1.92 0.087-0.628 0.145-1.21 0.174-1.747v0c0.019-0.362 0.026-0.745 0.021-1.149-0.012-0.411-0.05-0.824-0.115-1.238-0.059-0.407-0.152-0.802-0.28-1.185-0.128-0.384-0.304-0.723-0.531-1.018-0.226-0.301-0.509-0.549-0.849-0.742-0.333-0.186-0.731-0.291-1.194-0.316v0c-0.456-0.024-0.871 0.054-1.244 0.236-0.367 0.189-0.697 0.444-0.989 0.765-0.293 0.314-0.548 0.684-0.766 1.11-0.218 0.419-0.402 0.85-0.554 1.292-0.145 0.45-0.256 0.891-0.333 1.325-0.077 0.44-0.125 0.831-0.143 1.173v0l-0.426 7.95-4.659-0.249 0.848-15.85 1.791 0.095 1.926 3.807c0.288-0.604 0.637-1.147 1.046-1.629 0.416-0.482 0.875-0.888 1.377-1.218 0.502-0.33 1.054-0.576 1.654-0.74 0.6-0.156 1.243-0.216 1.928-0.179v0c1.1 0.059 2.047 0.288 2.839 0.687 0.799 0.399 1.451 0.932 1.953 1.598 0.509 0.666 0.872 1.443 1.087 2.329 0.222 0.887 0.305 1.846 0.25 2.879z" fill="#5e1914" data-fill-palette-color="primary"></path><path d="M153.098 260.115l1.429 13.956-4.632 0.474-1.429-13.956-2.868 0.294-0.188-1.834 2.868-0.294-0.596-5.815 4.632-0.475 0.596 5.815 4.792-0.491 0.188 1.835z" fill="#5e1914" data-fill-palette-color="primary"></path><path d="M168.478 262.79l1.979 8.396-5.316 1.253-4.542-19.265 13.831-3.26 0.581 2.462-8.515 2.007 1.404 5.954 6.582-1.551 0.578 2.452z" fill="#5e1914" data-fill-palette-color="primary"></path><path d="M196.374 253.476v0c0.316 0.764 0.511 1.523 0.584 2.278 0.076 0.746 0.053 1.48-0.071 2.2-0.126 0.714-0.35 1.403-0.671 2.067-0.321 0.664-0.722 1.277-1.202 1.84-0.471 0.566-1.016 1.075-1.636 1.528-0.62 0.453-1.296 0.831-2.028 1.134v0c-0.726 0.301-1.466 0.509-2.218 0.624-0.758 0.118-1.504 0.143-2.237 0.076-0.737-0.058-1.454-0.209-2.151-0.451-0.69-0.245-1.333-0.575-1.926-0.991-0.597-0.422-1.136-0.926-1.619-1.512-0.485-0.592-0.883-1.263-1.194-2.014v0c-0.311-0.751-0.504-1.507-0.58-2.269-0.073-0.755-0.047-1.493 0.076-2.213 0.126-0.714 0.347-1.402 0.662-2.063 0.321-0.664 0.722-1.277 1.202-1.839 0.471-0.566 1.016-1.075 1.636-1.529 0.613-0.45 1.283-0.826 2.01-1.126v0c0.732-0.303 1.478-0.514 2.236-0.632 0.758-0.118 1.504-0.143 2.237-0.076 0.737 0.058 1.454 0.209 2.151 0.452 0.697 0.242 1.342 0.571 1.936 0.987 0.597 0.422 1.133 0.927 1.609 1.515 0.485 0.592 0.883 1.263 1.194 2.014zM192.007 255.285v0c-0.167-0.403-0.369-0.822-0.607-1.254-0.231-0.435-0.494-0.85-0.788-1.245-0.292-0.388-0.614-0.746-0.967-1.072-0.357-0.318-0.738-0.571-1.143-0.759-0.403-0.182-0.837-0.282-1.303-0.3-0.462-0.027-0.954 0.068-1.475 0.283v0c-0.49 0.203-0.886 0.476-1.188 0.819-0.302 0.343-0.531 0.729-0.688 1.158-0.157 0.429-0.245 0.883-0.264 1.364-0.023 0.489-0.003 0.976 0.059 1.459 0.062 0.483 0.158 0.96 0.287 1.43 0.133 0.461 0.28 0.887 0.442 1.279v0c0.162 0.391 0.359 0.797 0.591 1.216 0.241 0.424 0.512 0.832 0.812 1.224 0.3 0.392 0.63 0.75 0.99 1.074 0.351 0.32 0.733 0.576 1.147 0.768 0.414 0.192 0.849 0.303 1.305 0.332 0.456 0.029 0.929-0.057 1.419-0.26v0c0.509-0.211 0.922-0.487 1.239-0.829 0.314-0.348 0.548-0.732 0.701-1.152 0.16-0.422 0.25-0.871 0.272-1.346 0.022-0.474-0.003-0.955-0.074-1.442-0.065-0.49-0.168-0.967-0.309-1.431-0.135-0.468-0.288-0.906-0.458-1.316z" fill="#5e1914" data-fill-palette-color="primary"></path><path d="M200.959 252.21v0c-0.383-0.608-0.731-1.274-1.044-1.998-0.307-0.728-0.572-1.482-0.794-2.264-0.216-0.785-0.387-1.586-0.514-2.404-0.126-0.818-0.199-1.633-0.218-2.446v0l2.874-1.81c0.166 0.705 0.374 1.42 0.623 2.144 0.244 0.728 0.515 1.442 0.814 2.143 0.289 0.699 0.595 1.368 0.918 2.007 0.323 0.638 0.649 1.219 0.978 1.742v0c0.19 0.301 0.408 0.616 0.655 0.945 0.243 0.323 0.508 0.637 0.795 0.941 0.287 0.304 0.596 0.574 0.926 0.81 0.326 0.24 0.668 0.417 1.027 0.533 0.353 0.119 0.719 0.159 1.098 0.118 0.379-0.04 0.768-0.186 1.166-0.437v0c0.387-0.243 0.678-0.55 0.874-0.919 0.2-0.364 0.326-0.761 0.381-1.193 0.054-0.431 0.046-0.879-0.024-1.343-0.064-0.468-0.167-0.927-0.308-1.378-0.132-0.449-0.289-0.874-0.47-1.276-0.187-0.398-0.372-0.742-0.555-1.032v0l-4.242-6.737 3.931-2.476 8.458 13.432-1.509 0.95-3.77-1.996c0.102 0.666 0.126 1.31 0.072 1.931-0.059 0.625-0.199 1.217-0.418 1.776-0.222 0.568-0.533 1.09-0.932 1.564-0.391 0.476-0.879 0.899-1.465 1.267v0c-0.927 0.584-1.832 0.943-2.715 1.079-0.881 0.126-1.72 0.067-2.518-0.178-0.791-0.248-1.533-0.67-2.226-1.265-0.687-0.599-1.31-1.343-1.868-2.23z" fill="#5e1914" data-fill-palette-color="primary"></path><path d="M230.227 226.824v0c0.72 0.798 1.373 1.716 1.957 2.755 0.585 1.038 1.081 2.129 1.489 3.272 0.398 1.143 0.687 2.299 0.865 3.469 0.174 1.165 0.21 2.273 0.109 3.324v0l-1.929 0.465c-0.122-0.506-0.289-1.042-0.503-1.609-0.218-0.572-0.476-1.154-0.775-1.745-0.289-0.59-0.608-1.185-0.958-1.783-0.35-0.598-0.713-1.176-1.089-1.732-0.371-0.561-0.748-1.089-1.132-1.585-0.383-0.505-0.755-0.957-1.116-1.356v0c-0.243-0.269-0.51-0.544-0.8-0.825-0.3-0.282-0.619-0.545-0.958-0.791-0.33-0.245-0.676-0.458-1.038-0.638-0.362-0.18-0.727-0.294-1.096-0.342-0.373-0.052-0.748-0.026-1.124 0.079-0.367 0.105-0.722 0.313-1.066 0.623v0c-0.339 0.306-0.576 0.656-0.71 1.049-0.125 0.393-0.177 0.807-0.156 1.24 0.016 0.429 0.098 0.871 0.246 1.326 0.144 0.45 0.319 0.884 0.526 1.304 0.216 0.42 0.451 0.81 0.704 1.17 0.257 0.365 0.501 0.675 0.73 0.93v0l5.336 5.909-3.463 3.127-10.638-11.781 1.331-1.202 4.057 1.32c-0.225-0.63-0.364-1.26-0.417-1.891-0.049-0.635-0.013-1.247 0.108-1.835 0.12-0.588 0.335-1.153 0.643-1.694 0.313-0.536 0.723-1.033 1.232-1.493v0c0.818-0.738 1.648-1.248 2.489-1.529 0.847-0.285 1.684-0.371 2.511-0.257 0.832 0.109 1.637 0.4 2.417 0.872 0.785 0.468 1.524 1.086 2.218 1.854z" fill="#5e1914" data-fill-palette-color="primary"></path><path d="M233.463 202.335l17.14 13.337-1.102 1.416-3.982-0.494c0.332 0.514 0.572 1.054 0.719 1.619 0.157 0.565 0.223 1.131 0.197 1.699-0.02 0.572-0.124 1.133-0.314 1.684-0.199 0.552-0.487 1.069-0.862 1.551v0c-0.743 0.954-1.577 1.676-2.502 2.165-0.925 0.489-1.887 0.762-2.885 0.82-0.993 0.062-1.994-0.079-3.004-0.422-1.01-0.343-1.968-0.868-2.875-1.574v0c-0.912-0.71-1.658-1.512-2.24-2.406-0.581-0.895-0.963-1.831-1.147-2.808-0.179-0.974-0.145-1.969 0.101-2.986 0.247-1.017 0.741-2.003 1.484-2.957v0c0.565-0.726 1.228-1.288 1.987-1.685 0.756-0.391 1.602-0.571 2.54-0.539v0l-6.109-4.753zM241.488 214.504v0c-0.292-0.227-0.629-0.455-1.012-0.685-0.378-0.226-0.781-0.429-1.211-0.61-0.43-0.181-0.866-0.325-1.311-0.433-0.454-0.106-0.897-0.149-1.33-0.128-0.429 0.015-0.839 0.109-1.229 0.283-0.381 0.172-0.718 0.446-1.01 0.822v0c-0.318 0.408-0.522 0.824-0.613 1.247-0.087 0.418-0.09 0.832-0.01 1.244 0.08 0.411 0.228 0.812 0.444 1.201 0.217 0.399 0.473 0.776 0.766 1.133 0.288 0.352 0.6 0.684 0.936 0.996 0.331 0.308 0.657 0.588 0.981 0.84v0c0.318 0.248 0.667 0.494 1.047 0.738 0.385 0.249 0.784 0.47 1.196 0.663 0.417 0.197 0.846 0.352 1.286 0.464 0.436 0.118 0.863 0.165 1.282 0.142 0.418-0.023 0.819-0.129 1.203-0.316 0.388-0.192 0.741-0.492 1.058-0.9v0c0.322-0.414 0.533-0.833 0.633-1.257 0.096-0.419 0.106-0.837 0.031-1.253-0.076-0.417-0.222-0.82-0.439-1.21-0.212-0.395-0.465-0.77-0.758-1.126-0.299-0.36-0.616-0.696-0.951-1.009-0.336-0.312-0.665-0.594-0.989-0.846z" fill="#5e1914" data-fill-palette-color="primary"></path><path d="M249.69 202.17v0c0.38-0.445 0.735-0.899 1.065-1.363 0.333-0.47 0.634-0.96 0.905-1.471v0c0.283-0.534 0.495-1.057 0.636-1.567 0.141-0.511 0.18-1 0.116-1.467-0.061-0.458-0.239-0.891-0.533-1.298-0.294-0.407-0.735-0.766-1.322-1.077v0c-0.481-0.255-0.952-0.421-1.413-0.498-0.467-0.08-0.911-0.068-1.331 0.037-0.42 0.104-0.807 0.303-1.159 0.594-0.355 0.283-0.664 0.671-0.925 1.164v0c-0.245 0.463-0.379 0.924-0.402 1.384-0.029 0.456 0.028 0.901 0.171 1.334 0.137 0.43 0.342 0.847 0.615 1.25 0.276 0.397 0.587 0.771 0.934 1.122 0.34 0.348 0.707 0.66 1.101 0.936 0.39 0.283 0.772 0.523 1.146 0.722v0c0.065 0.035 0.131 0.069 0.196 0.104 0.065 0.035 0.132 0.066 0.2 0.094zM252.281 190.587v0c0.576 0.305 1.038 0.668 1.385 1.087 0.354 0.423 0.615 0.885 0.784 1.385 0.174 0.503 0.266 1.027 0.274 1.571 0.014 0.547-0.03 1.098-0.134 1.651-0.106 0.56-0.261 1.109-0.463 1.648-0.202 0.539-0.43 1.049-0.685 1.53v0c-0.321 0.606-0.68 1.183-1.078 1.733-0.4 0.541-0.845 1.05-1.334 1.528v0c0.582 0.194 1.165 0.321 1.749 0.38 0.582 0.065 1.14 0.03 1.675-0.105 0.535-0.135 1.031-0.381 1.487-0.74 0.459-0.365 0.861-0.871 1.204-1.518v0c0.23-0.433 0.384-0.876 0.464-1.328 0.074-0.455 0.079-0.909 0.014-1.361-0.059-0.449-0.187-0.882-0.384-1.299-0.188-0.419-0.441-0.811-0.757-1.176v0l1.589-1.428c0.5 0.607 0.86 1.269 1.081 1.987 0.218 0.708 0.322 1.437 0.313 2.184-0.009 0.748-0.113 1.491-0.314 2.229-0.207 0.734-0.481 1.425-0.824 2.073v0c-0.566 1.069-1.268 1.963-2.106 2.682-0.843 0.716-1.762 1.23-2.755 1.54-0.996 0.316-2.043 0.419-3.14 0.309-1.095-0.101-2.176-0.435-3.245-1.001v0c-1.069-0.566-1.952-1.274-2.65-2.123-0.707-0.846-1.21-1.77-1.508-2.772-0.301-0.996-0.392-2.044-0.273-3.144 0.125-1.097 0.471-2.18 1.036-3.248v0c0.274-0.517 0.589-1.026 0.947-1.529 0.361-0.508 0.756-0.975 1.187-1.401 0.425-0.429 0.884-0.801 1.379-1.117 0.488-0.319 1.006-0.55 1.554-0.694 0.547-0.143 1.116-0.184 1.707-0.122 0.591 0.062 1.198 0.258 1.821 0.589z" fill="#5e1914" data-fill-palette-color="primary"></path><path d="M254.853 171.972v0l3.236 3.888c-0.384-0.02-0.821-0.022-1.31-0.007-0.489 0.015-0.966 0.077-1.43 0.186-0.458 0.111-0.873 0.291-1.244 0.538-0.373 0.254-0.636 0.601-0.787 1.039v0c-0.141 0.406-0.162 0.794-0.063 1.162 0.106 0.371 0.29 0.72 0.554 1.047 0.257 0.324 0.572 0.626 0.945 0.904 0.373 0.279 0.761 0.531 1.166 0.758 0.401 0.218 0.794 0.407 1.178 0.569 0.385 0.162 0.72 0.293 1.006 0.392v0l7.52 2.614-1.532 4.408-14.993-5.212 0.589-1.694 4.109-0.556c-0.479-0.444-0.899-0.903-1.26-1.377-0.368-0.476-0.649-0.976-0.845-1.5-0.202-0.525-0.308-1.078-0.32-1.658-0.012-0.58 0.096-1.197 0.323-1.851v0c0.117-0.336 0.276-0.701 0.477-1.093 0.196-0.401 0.433-0.774 0.709-1.119 0.272-0.353 0.575-0.661 0.907-0.923 0.333-0.261 0.688-0.433 1.065-0.515z" fill="#5e1914" data-fill-palette-color="primary"></path><path d="M4.639 140.18c0-4.581 3.714-8.294 8.294-8.295 4.581 0 8.294 3.714 8.295 8.295 0 4.581-3.714 8.294-8.295 8.294-4.581 0-8.294-3.714-8.294-8.294z" fill="#5e1914" data-fill-palette-color="primary"></path><path d="M257.042 140.18c0-4.581 3.714-8.294 8.294-8.295 4.581 0 8.294 3.714 8.295 8.295 0 4.581-3.714 8.294-8.295 8.294-4.581 0-8.294-3.714-8.294-8.294z" fill="#5e1914" data-fill-palette-color="primary"></path></g><g id="text-1"></g></svg></g><g transform="matrix(1,0,0,1,53.1494936,291.5856343484835)"><svg viewBox="0 0 171.97061280000003 21.441096011034485" height="21.441096011034485" width="171.97061280000003"><g transform="matrix(1,0,0,1,0,0)"><svg width="171.97061280000003" viewBox="0.49 -35.01 361.03999999999996 45.019999999999996" height="21.441096011034485" data-palette-color="#5e1914"><path d="M19.46 0L17.14-8.15 6.05-8.15 3.76 0 0.49 0 10.74-35.01 12.4-35.01 22.71 0 19.46 0ZM11.5-27.29L6.91-11.16 16.31-11.16 11.69-27.29 11.6-28.59 11.5-27.29ZM42.89-6.86L42.89-6.86Q42.89-5.35 42.32-4 41.75-2.66 40.74-1.66 39.74-0.66 38.4-0.09 37.06 0.49 35.54 0.49L35.54 0.49 34.79 0.49Q33.1 0.49 31.66-0.2 30.22-0.88 29.2-2.1L29.2-2.1 29.2 10.01 26.19 10.01 26.19-25 27.19-25 28.83-22.46Q29.86-23.85 31.41-24.67 32.96-25.49 34.79-25.49L34.79-25.49 35.54-25.49Q37.06-25.49 38.4-24.91 39.74-24.34 40.74-23.34 41.75-22.34 42.32-21 42.89-19.65 42.89-18.14L42.89-18.14 42.89-6.86ZM39.89-6.69L39.89-18.31Q39.89-19.21 39.55-20.01 39.21-20.8 38.62-21.39 38.03-21.97 37.24-22.31 36.45-22.66 35.54-22.66L35.54-22.66 33.54-22.66Q32.64-22.66 31.85-22.31 31.05-21.97 30.47-21.39 29.88-20.8 29.54-20.01 29.2-19.21 29.2-18.31L29.2-18.31 29.2-6.69Q29.2-5.79 29.54-4.99 29.88-4.2 30.47-3.61 31.05-3.03 31.85-2.69 32.64-2.34 33.54-2.34L33.54-2.34 35.54-2.34Q36.45-2.34 37.24-2.69 38.03-3.03 38.62-3.61 39.21-4.2 39.55-4.99 39.89-5.79 39.89-6.69L39.89-6.69ZM65.6 0L64.59 0 62.93-2.49Q61.91-1.15 60.37-0.33 58.83 0.49 57 0.49L57 0.49 56.25 0.49Q54.73 0.49 53.39-0.09 52.05-0.66 51.04-1.66 50.04-2.66 49.47-4 48.9-5.35 48.9-6.86L48.9-6.86 48.9-7.1Q48.9-8.62 49.47-9.96 50.04-11.3 51.04-12.3 52.05-13.31 53.39-13.88 54.73-14.45 56.25-14.45L56.25-14.45 62.59-14.45 62.59-18.31Q62.59-19.21 62.25-20.01 61.91-20.8 61.32-21.39 60.74-21.97 59.94-22.31 59.15-22.66 58.25-22.66L58.25-22.66 56.49-22.66Q55.59-22.66 54.79-22.31 54-21.97 53.41-21.39 52.83-20.8 52.49-20.01 52.14-19.21 52.14-18.31L52.14-18.31 52.14-17.41 49.14-17.9 49.14-18.14Q49.14-19.65 49.71-21 50.29-22.34 51.29-23.34 52.29-24.34 53.63-24.91 54.98-25.49 56.49-25.49L56.49-25.49 58.25-25.49Q59.76-25.49 61.1-24.91 62.45-24.34 63.45-23.34 64.45-22.34 65.02-21 65.6-19.65 65.6-18.14L65.6-18.14 65.6 0ZM62.59-6.69L62.59-12.11 56.25-12.11Q55.34-12.11 54.55-11.77 53.75-11.43 53.17-10.83 52.58-10.23 52.24-9.44 51.9-8.64 51.9-7.74L51.9-7.74 51.9-6.69Q51.9-5.79 52.24-4.99 52.58-4.2 53.17-3.61 53.75-3.03 54.55-2.69 55.34-2.34 56.25-2.34L56.25-2.34 58.25-2.34Q59.15-2.34 59.94-2.69 60.74-3.03 61.32-3.61 61.91-4.2 62.25-4.99 62.59-5.79 62.59-6.69L62.59-6.69ZM81.95-22.14L78.95-22.14Q78.04-22.14 77.25-21.8 76.46-21.46 75.87-20.87 75.29-20.29 74.94-19.49 74.6-18.7 74.6-17.8L74.6-17.8 74.6 0 71.6 0 71.6-25 72.6-25 74.24-22.46Q75.26-23.85 76.81-24.67 78.36-25.49 80.19-25.49L80.19-25.49 81.95-25.49 81.95-22.14ZM97.79 0L95.06 0Q93.69 0 92.48-0.51 91.27-1.03 90.38-1.93 89.49-2.83 88.97-4.03 88.44-5.22 88.44-6.59L88.44-6.59 88.44-22.14 83.95-22.14 83.95-25 88.44-25 88.44-31.01 91.45-31.49 91.45-25 97.79-25 97.79-22.14 91.45-22.14 91.45-6.45Q91.45-5.69 91.73-5.04 92.01-4.39 92.49-3.91 92.98-3.42 93.64-3.14 94.3-2.86 95.06-2.86L95.06-2.86 97.79-2.86 97.79 0ZM132.7 0L129.7 0 129.7-18.31Q129.7-19.21 129.36-20.01 129.02-20.8 128.43-21.39 127.84-21.97 127.05-22.31 126.26-22.66 125.35-22.66L125.35-22.66 123.86-22.66Q122.96-22.66 122.17-22.31 121.37-21.97 120.78-21.39 120.18-20.8 119.84-20.01 119.49-19.21 119.49-18.31L119.49-18.31 119.49 0 116.52 0 116.52-18.31Q116.52-19.21 116.17-20.01 115.83-20.8 115.23-21.39 114.64-21.97 113.84-22.31 113.05-22.66 112.15-22.66L112.15-22.66 110.66-22.66Q109.75-22.66 108.96-22.31 108.17-21.97 107.58-21.39 106.99-20.8 106.65-20.01 106.31-19.21 106.31-18.31L106.31-18.31 106.31 0 103.31 0 103.31-25 104.31-25 105.94-22.46Q106.97-23.85 108.52-24.67 110.07-25.49 111.9-25.49L111.9-25.49 112.15-25.49Q114.27-25.49 115.98-24.44 117.69-23.39 118.62-21.66L118.62-21.66Q119.08-22.51 119.76-23.22 120.45-23.93 121.28-24.43 122.11-24.93 123.08-25.21 124.06-25.49 125.11-25.49L125.11-25.49 125.35-25.49Q126.87-25.49 128.21-24.91 129.55-24.34 130.55-23.34 131.55-22.34 132.13-21 132.7-19.65 132.7-18.14L132.7-18.14 132.7 0ZM155.4-6.86L155.4-6.86Q155.4-5.35 154.83-4 154.26-2.66 153.26-1.66 152.26-0.66 150.91-0.09 149.57 0.49 148.06 0.49L148.06 0.49 146.05 0.49Q144.54 0.49 143.2-0.09 141.86-0.66 140.85-1.66 139.85-2.66 139.28-4 138.71-5.35 138.71-6.86L138.71-6.86 138.71-18.14Q138.71-19.65 139.28-21 139.85-22.34 140.85-23.34 141.86-24.34 143.2-24.91 144.54-25.49 146.05-25.49L146.05-25.49 148.06-25.49Q149.57-25.49 150.91-24.91 152.26-24.34 153.26-23.34 154.26-22.34 154.83-21 155.4-19.65 155.4-18.14L155.4-18.14 155.4-12.26 141.71-12.26 141.71-6.69Q141.71-5.79 142.05-4.99 142.39-4.2 142.98-3.61 143.56-3.03 144.36-2.69 145.15-2.34 146.05-2.34L146.05-2.34 148.06-2.34Q148.96-2.34 149.75-2.69 150.55-3.03 151.13-3.61 151.72-4.2 152.06-4.99 152.4-5.79 152.4-6.69L152.4-6.69 152.4-8.35 155.4-7.86 155.4-6.86ZM152.4-14.6L152.4-18.31Q152.4-19.21 152.06-20.01 151.72-20.8 151.13-21.39 150.55-21.97 149.75-22.31 148.96-22.66 148.06-22.66L148.06-22.66 146.05-22.66Q145.15-22.66 144.36-22.31 143.56-21.97 142.98-21.39 142.39-20.8 142.05-20.01 141.71-19.21 141.71-18.31L141.71-18.31 141.71-14.6 152.4-14.6ZM178.11 0L175.1 0 175.1-18.31Q175.1-19.21 174.76-20.01 174.42-20.8 173.84-21.39 173.25-21.97 172.46-22.31 171.66-22.66 170.76-22.66L170.76-22.66 168.76-22.66Q167.85-22.66 167.06-22.31 166.27-21.97 165.68-21.39 165.09-20.8 164.75-20.01 164.41-19.21 164.41-18.31L164.41-18.31 164.41 0 161.41 0 161.41-25 162.41-25 164.05-22.46Q165.07-23.85 166.62-24.67 168.17-25.49 170-25.49L170-25.49 170.76-25.49Q172.27-25.49 173.62-24.91 174.96-24.34 175.96-23.34 176.96-22.34 177.53-21 178.11-19.65 178.11-18.14L178.11-18.14 178.11 0ZM195.95 0L193.22 0Q191.85 0 190.64-0.51 189.43-1.03 188.54-1.93 187.65-2.83 187.13-4.03 186.6-5.22 186.6-6.59L186.6-6.59 186.6-22.14 182.11-22.14 182.11-25 186.6-25 186.6-31.01 189.6-31.49 189.6-25 195.95-25 195.95-22.14 189.6-22.14 189.6-6.45Q189.6-5.69 189.88-5.04 190.17-4.39 190.65-3.91 191.14-3.42 191.8-3.14 192.46-2.86 193.22-2.86L193.22-2.86 195.95-2.86 195.95 0ZM233.67-32.01L217.11-32.01 217.11-18.99 230.52-18.99 230.52-15.99 217.11-15.99 217.11 0 213.96 0 213.96-35.01 233.67-35.01 233.67-32.01ZM254.37-6.86L254.37-6.86Q254.37-5.35 253.79-4 253.22-2.66 252.22-1.66 251.22-0.66 249.87-0.09 248.53 0.49 247.02 0.49L247.02 0.49 245.02 0.49Q243.5 0.49 242.16-0.09 240.82-0.66 239.82-1.66 238.82-2.66 238.24-4 237.67-5.35 237.67-6.86L237.67-6.86 237.67-18.14Q237.67-19.65 238.24-21 238.82-22.34 239.82-23.34 240.82-24.34 242.16-24.91 243.5-25.49 245.02-25.49L245.02-25.49 247.02-25.49Q248.53-25.49 249.87-24.91 251.22-24.34 252.22-23.34 253.22-22.34 253.79-21 254.37-19.65 254.37-18.14L254.37-18.14 254.37-6.86ZM251.36-6.69L251.36-18.31Q251.36-19.21 251.02-20.01 250.68-20.8 250.09-21.39 249.51-21.97 248.72-22.31 247.92-22.66 247.02-22.66L247.02-22.66 245.02-22.66Q244.11-22.66 243.32-22.31 242.53-21.97 241.94-21.39 241.35-20.8 241.01-20.01 240.67-19.21 240.67-18.31L240.67-18.31 240.67-6.69Q240.67-5.79 241.01-4.99 241.35-4.2 241.94-3.61 242.53-3.03 243.32-2.69 244.11-2.34 245.02-2.34L245.02-2.34 247.02-2.34Q247.92-2.34 248.72-2.69 249.51-3.03 250.09-3.61 250.68-4.2 251.02-4.99 251.36-5.79 251.36-6.69L251.36-6.69ZM277.07 0L276.07 0 274.41-2.54Q273.38-1.15 271.85-0.33 270.31 0.49 268.48 0.49L268.48 0.49 267.72 0.49Q266.21 0.49 264.86-0.09 263.52-0.66 262.52-1.66 261.52-2.66 260.94-4 260.37-5.35 260.37-6.86L260.37-6.86 260.37-25 263.37-25 263.37-6.69Q263.37-5.79 263.72-4.99 264.06-4.2 264.64-3.61 265.23-3.03 266.02-2.69 266.82-2.34 267.72-2.34L267.72-2.34 269.72-2.34Q270.62-2.34 271.42-2.69 272.21-3.03 272.8-3.61 273.38-4.2 273.72-4.99 274.07-5.79 274.07-6.69L274.07-6.69 274.07-25 277.07-25 277.07 0ZM299.77 0L296.77 0 296.77-18.31Q296.77-19.21 296.43-20.01 296.09-20.8 295.5-21.39 294.91-21.97 294.12-22.31 293.33-22.66 292.42-22.66L292.42-22.66 290.42-22.66Q289.52-22.66 288.72-22.31 287.93-21.97 287.35-21.39 286.76-20.8 286.42-20.01 286.08-19.21 286.08-18.31L286.08-18.31 286.08 0 283.07 0 283.07-25 284.07-25 285.71-22.46Q286.74-23.85 288.29-24.67 289.84-25.49 291.67-25.49L291.67-25.49 292.42-25.49Q293.94-25.49 295.28-24.91 296.62-24.34 297.62-23.34 298.62-22.34 299.2-21 299.77-19.65 299.77-18.14L299.77-18.14 299.77 0ZM322.47 0L321.47 0 319.81-2.54Q318.79-1.15 317.25-0.33 315.71 0.49 313.88 0.49L313.88 0.49 313.12 0.49Q311.61 0.49 310.27-0.09 308.92-0.66 307.92-1.66 306.92-2.66 306.35-4 305.78-5.35 305.78-6.86L305.78-6.86 305.78-18.14Q305.78-19.65 306.35-21 306.92-22.34 307.92-23.34 308.92-24.34 310.27-24.91 311.61-25.49 313.12-25.49L313.12-25.49 313.88-25.49Q315.57-25.49 317.01-24.8 318.45-24.12 319.47-22.9L319.47-22.9 319.47-35.01 322.47-35.01 322.47 0ZM319.47-6.69L319.47-18.31Q319.47-19.21 319.13-20.01 318.79-20.8 318.2-21.39 317.62-21.97 316.82-22.31 316.03-22.66 315.13-22.66L315.13-22.66 313.12-22.66Q312.22-22.66 311.43-22.31 310.63-21.97 310.05-21.39 309.46-20.8 309.12-20.01 308.78-19.21 308.78-18.31L308.78-18.31 308.78-6.69Q308.78-5.79 309.12-4.99 309.46-4.2 310.05-3.61 310.63-3.03 311.43-2.69 312.22-2.34 313.12-2.34L313.12-2.34 315.13-2.34Q316.03-2.34 316.82-2.69 317.62-3.03 318.2-3.61 318.79-4.2 319.13-4.99 319.47-5.79 319.47-6.69L319.47-6.69ZM345.18-6.86L345.18-6.86Q345.18-5.35 344.6-4 344.03-2.66 343.03-1.66 342.03-0.66 340.69-0.09 339.34 0.49 337.83 0.49L337.83 0.49 335.83 0.49Q334.31 0.49 332.97-0.09 331.63-0.66 330.63-1.66 329.63-2.66 329.05-4 328.48-5.35 328.48-6.86L328.48-6.86 328.48-18.14Q328.48-19.65 329.05-21 329.63-22.34 330.63-23.34 331.63-24.34 332.97-24.91 334.31-25.49 335.83-25.49L335.83-25.49 337.83-25.49Q339.34-25.49 340.69-24.91 342.03-24.34 343.03-23.34 344.03-22.34 344.6-21 345.18-19.65 345.18-18.14L345.18-18.14 345.18-12.26 331.48-12.26 331.48-6.69Q331.48-5.79 331.82-4.99 332.16-4.2 332.75-3.61 333.34-3.03 334.13-2.69 334.92-2.34 335.83-2.34L335.83-2.34 337.83-2.34Q338.73-2.34 339.53-2.69 340.32-3.03 340.9-3.61 341.49-4.2 341.83-4.99 342.17-5.79 342.17-6.69L342.17-6.69 342.17-8.35 345.18-7.86 345.18-6.86ZM342.17-14.6L342.17-18.31Q342.17-19.21 341.83-20.01 341.49-20.8 340.9-21.39 340.32-21.97 339.53-22.31 338.73-22.66 337.83-22.66L337.83-22.66 335.83-22.66Q334.92-22.66 334.13-22.31 333.34-21.97 332.75-21.39 332.16-20.8 331.82-20.01 331.48-19.21 331.48-18.31L331.48-18.31 331.48-14.6 342.17-14.6ZM361.53-22.14L358.53-22.14Q357.63-22.14 356.83-21.8 356.04-21.46 355.45-20.87 354.87-20.29 354.53-19.49 354.18-18.7 354.18-17.8L354.18-17.8 354.18 0 351.18 0 351.18-25 352.18-25 353.82-22.46Q354.84-23.85 356.39-24.67 357.94-25.49 359.77-25.49L359.77-25.49 361.53-25.49 361.53-22.14Z" opacity="1" transform="matrix(1,0,0,1,0,0)" fill="#5e1914" class="slogan-text-1" data-fill-palette-color="secondary" id="text-1"></path></svg></g></svg></g></svg></g></svg></g></svg></g><defs></defs></svg><rect width="248.91001452339992" height="280" fill="none" stroke="none" visibility="hidden"></rect></g></svg></g></svg>